<mxfile host="app.diagrams.net" modified="2021-03-27T10:20:36.234Z" agent="5.0 (Windows NT 10.0; Win64; x64) AppleWebKit/537.36 (KHTML, like Gecko) Chrome/89.0.4389.90 Safari/537.36" etag="fySfkZ7LIsxa71B7tZR7" version="14.5.3" type="github">
  <diagram id="IXVQ1Nhj0NisFSluEiop" name="Page-1">
    <mxGraphModel dx="1422" dy="705" grid="1" gridSize="10" guides="1" tooltips="1" connect="1" arrows="1" fold="1" page="1" pageScale="1" pageWidth="850" pageHeight="1100" math="0" shadow="0">
      <root>
        <mxCell id="0" />
        <mxCell id="1" parent="0" />
        <mxCell id="nZdTjWi-1jyUYJqyLddF-2" value="&lt;font style=&quot;font-size: 18px&quot;&gt;&lt;b&gt;Tyk Gateway&lt;/b&gt;&lt;/font&gt;" style="shape=hexagon;perimeter=hexagonPerimeter2;whiteSpace=wrap;html=1;fixedSize=1;" parent="1" vertex="1">
          <mxGeometry x="210" y="230" width="170" height="110" as="geometry" />
        </mxCell>
        <mxCell id="nZdTjWi-1jyUYJqyLddF-7" value="&lt;font style=&quot;font-size: 18px&quot;&gt;&lt;b&gt;KeyCloak &lt;/b&gt;&lt;/font&gt;- &lt;br&gt;authorization server" style="shape=image;html=1;verticalAlign=top;verticalLabelPosition=bottom;labelBackgroundColor=#ffffff;imageAspect=0;aspect=fixed;image=https://cdn3.iconfinder.com/data/icons/e-learning-outline-distance-education/512/E-learning_log-in_privacy-128.png" parent="1" vertex="1">
          <mxGeometry x="470" y="50" width="128" height="128" as="geometry" />
        </mxCell>
        <mxCell id="nZdTjWi-1jyUYJqyLddF-8" value="Client - browser" style="pointerEvents=1;shadow=0;dashed=0;html=1;strokeColor=none;fillColor=#434445;aspect=fixed;labelPosition=center;verticalLabelPosition=bottom;verticalAlign=top;align=center;outlineConnect=0;shape=mxgraph.vvd.web_browser;" parent="1" vertex="1">
          <mxGeometry x="30" y="90" width="140.84" height="100" as="geometry" />
        </mxCell>
        <mxCell id="EIC_5M2UopmRqI0AsY-C-1" value="" style="endArrow=classic;startArrow=classic;html=1;" edge="1" parent="1" target="nZdTjWi-1jyUYJqyLddF-8">
          <mxGeometry width="50" height="50" relative="1" as="geometry">
            <mxPoint x="230" y="228" as="sourcePoint" />
            <mxPoint x="280" y="178" as="targetPoint" />
          </mxGeometry>
        </mxCell>
        <mxCell id="EIC_5M2UopmRqI0AsY-C-2" value="" style="endArrow=classic;startArrow=classic;html=1;exitX=0.876;exitY=-0.009;exitDx=0;exitDy=0;exitPerimeter=0;entryX=0;entryY=0.75;entryDx=0;entryDy=0;" edge="1" parent="1" source="nZdTjWi-1jyUYJqyLddF-2" target="nZdTjWi-1jyUYJqyLddF-7">
          <mxGeometry width="50" height="50" relative="1" as="geometry">
            <mxPoint x="400" y="390" as="sourcePoint" />
            <mxPoint x="450" y="340" as="targetPoint" />
          </mxGeometry>
        </mxCell>
        <mxCell id="EIC_5M2UopmRqI0AsY-C-3" value="" style="endArrow=classic;startArrow=classic;html=1;entryX=0;entryY=0.25;entryDx=0;entryDy=0;" edge="1" parent="1" source="nZdTjWi-1jyUYJqyLddF-8" target="nZdTjWi-1jyUYJqyLddF-7">
          <mxGeometry width="50" height="50" relative="1" as="geometry">
            <mxPoint x="160" y="80" as="sourcePoint" />
            <mxPoint x="450" y="340" as="targetPoint" />
          </mxGeometry>
        </mxCell>
        <mxCell id="EIC_5M2UopmRqI0AsY-C-4" value="Police" style="shape=process;whiteSpace=wrap;html=1;backgroundOutline=1;" vertex="1" parent="1">
          <mxGeometry x="150" y="440" width="120" height="60" as="geometry" />
        </mxCell>
        <mxCell id="EIC_5M2UopmRqI0AsY-C-5" value="Library" style="shape=process;whiteSpace=wrap;html=1;backgroundOutline=1;" vertex="1" parent="1">
          <mxGeometry x="400" y="440" width="120" height="60" as="geometry" />
        </mxCell>
        <mxCell id="EIC_5M2UopmRqI0AsY-C-6" value="REST controllers" style="endArrow=classic;startArrow=classic;html=1;entryX=1;entryY=0.75;entryDx=0;entryDy=0;exitX=0.575;exitY=0.017;exitDx=0;exitDy=0;exitPerimeter=0;" edge="1" parent="1" source="EIC_5M2UopmRqI0AsY-C-5" target="nZdTjWi-1jyUYJqyLddF-2">
          <mxGeometry width="50" height="50" relative="1" as="geometry">
            <mxPoint x="400" y="390" as="sourcePoint" />
            <mxPoint x="450" y="340" as="targetPoint" />
          </mxGeometry>
        </mxCell>
        <mxCell id="EIC_5M2UopmRqI0AsY-C-7" value="REST controllers" style="endArrow=classic;startArrow=classic;html=1;entryX=0.218;entryY=1.009;entryDx=0;entryDy=0;entryPerimeter=0;exitX=0.433;exitY=-0.05;exitDx=0;exitDy=0;exitPerimeter=0;" edge="1" parent="1" source="EIC_5M2UopmRqI0AsY-C-4" target="nZdTjWi-1jyUYJqyLddF-2">
          <mxGeometry width="50" height="50" relative="1" as="geometry">
            <mxPoint x="400" y="390" as="sourcePoint" />
            <mxPoint x="450" y="340" as="targetPoint" />
          </mxGeometry>
        </mxCell>
        <mxCell id="EIC_5M2UopmRqI0AsY-C-8" value="DB Postgresql" style="strokeWidth=2;html=1;shape=mxgraph.flowchart.database;whiteSpace=wrap;" vertex="1" parent="1">
          <mxGeometry x="140" y="560" width="60" height="60" as="geometry" />
        </mxCell>
        <mxCell id="EIC_5M2UopmRqI0AsY-C-9" value="MongoDB" style="strokeWidth=2;html=1;shape=mxgraph.flowchart.database;whiteSpace=wrap;" vertex="1" parent="1">
          <mxGeometry x="470" y="560" width="60" height="60" as="geometry" />
        </mxCell>
        <mxCell id="EIC_5M2UopmRqI0AsY-C-26" style="edgeStyle=orthogonalEdgeStyle;rounded=0;orthogonalLoop=1;jettySize=auto;html=1;exitX=0.995;exitY=0.01;exitDx=0;exitDy=0;exitPerimeter=0;entryX=1;entryY=0.5;entryDx=0;entryDy=0;entryPerimeter=0;" edge="1" parent="1" source="EIC_5M2UopmRqI0AsY-C-10" target="EIC_5M2UopmRqI0AsY-C-20">
          <mxGeometry relative="1" as="geometry" />
        </mxCell>
        <mxCell id="EIC_5M2UopmRqI0AsY-C-27" style="edgeStyle=orthogonalEdgeStyle;rounded=0;orthogonalLoop=1;jettySize=auto;html=1;exitX=0.93;exitY=0.5;exitDx=0;exitDy=0;exitPerimeter=0;entryX=1;entryY=0.5;entryDx=0;entryDy=0;entryPerimeter=0;" edge="1" parent="1" source="EIC_5M2UopmRqI0AsY-C-10" target="EIC_5M2UopmRqI0AsY-C-19">
          <mxGeometry relative="1" as="geometry" />
        </mxCell>
        <mxCell id="EIC_5M2UopmRqI0AsY-C-10" value="&lt;font style=&quot;font-size: 18px&quot;&gt;&lt;b&gt;Kafka&lt;/b&gt;&lt;/font&gt;" style="strokeWidth=2;html=1;shape=mxgraph.flowchart.stored_data;whiteSpace=wrap;rotation=90;" vertex="1" parent="1">
          <mxGeometry x="240" y="550" width="200" height="55" as="geometry" />
        </mxCell>
        <mxCell id="EIC_5M2UopmRqI0AsY-C-14" value="" style="endArrow=classic;html=1;exitX=0.842;exitY=1.05;exitDx=0;exitDy=0;exitPerimeter=0;entryX=0.433;entryY=1.045;entryDx=0;entryDy=0;entryPerimeter=0;" edge="1" parent="1" source="EIC_5M2UopmRqI0AsY-C-4" target="EIC_5M2UopmRqI0AsY-C-10">
          <mxGeometry width="50" height="50" relative="1" as="geometry">
            <mxPoint x="400" y="380" as="sourcePoint" />
            <mxPoint x="450" y="330" as="targetPoint" />
          </mxGeometry>
        </mxCell>
        <mxCell id="EIC_5M2UopmRqI0AsY-C-15" value="" style="endArrow=classic;html=1;exitX=0.25;exitY=1;exitDx=0;exitDy=0;entryX=0.408;entryY=0.009;entryDx=0;entryDy=0;entryPerimeter=0;" edge="1" parent="1" source="EIC_5M2UopmRqI0AsY-C-5" target="EIC_5M2UopmRqI0AsY-C-10">
          <mxGeometry width="50" height="50" relative="1" as="geometry">
            <mxPoint x="400" y="380" as="sourcePoint" />
            <mxPoint x="450" y="330" as="targetPoint" />
          </mxGeometry>
        </mxCell>
        <mxCell id="EIC_5M2UopmRqI0AsY-C-17" value="" style="shape=flexArrow;endArrow=classic;startArrow=classic;html=1;entryX=0.417;entryY=0.983;entryDx=0;entryDy=0;entryPerimeter=0;" edge="1" parent="1" source="EIC_5M2UopmRqI0AsY-C-8" target="EIC_5M2UopmRqI0AsY-C-4">
          <mxGeometry width="50" height="50" relative="1" as="geometry">
            <mxPoint x="400" y="380" as="sourcePoint" />
            <mxPoint x="450" y="330" as="targetPoint" />
          </mxGeometry>
        </mxCell>
        <mxCell id="EIC_5M2UopmRqI0AsY-C-19" value="Log Service&lt;br&gt;" style="outlineConnect=0;dashed=0;verticalLabelPosition=bottom;verticalAlign=top;align=center;html=1;shape=mxgraph.aws3.worker;fillColor=#D9A741;gradientColor=none;" vertex="1" parent="1">
          <mxGeometry x="240" y="740" width="60" height="63" as="geometry" />
        </mxCell>
        <mxCell id="EIC_5M2UopmRqI0AsY-C-20" value="Notification Service" style="outlineConnect=0;dashed=0;verticalLabelPosition=bottom;verticalAlign=top;align=center;html=1;shape=mxgraph.aws3.worker;fillColor=#D9A741;gradientColor=none;" vertex="1" parent="1">
          <mxGeometry x="240" y="850" width="60" height="63" as="geometry" />
        </mxCell>
        <mxCell id="EIC_5M2UopmRqI0AsY-C-21" value="&lt;font style=&quot;font-size: 24px&quot;&gt;&lt;u&gt;&lt;i&gt;Gotham City&lt;/i&gt;&lt;/u&gt;&lt;/font&gt;" style="text;html=1;align=center;verticalAlign=middle;resizable=0;points=[];autosize=1;" vertex="1" parent="1">
          <mxGeometry x="680" y="10" width="150" height="20" as="geometry" />
        </mxCell>
        <mxCell id="EIC_5M2UopmRqI0AsY-C-28" value="" style="shape=flexArrow;endArrow=classic;startArrow=classic;html=1;entryX=0.75;entryY=1;entryDx=0;entryDy=0;exitX=0.733;exitY=-0.033;exitDx=0;exitDy=0;exitPerimeter=0;" edge="1" parent="1" source="EIC_5M2UopmRqI0AsY-C-9" target="EIC_5M2UopmRqI0AsY-C-5">
          <mxGeometry width="50" height="50" relative="1" as="geometry">
            <mxPoint x="470" y="570" as="sourcePoint" />
            <mxPoint x="520" y="520" as="targetPoint" />
          </mxGeometry>
        </mxCell>
      </root>
    </mxGraphModel>
  </diagram>
</mxfile>
